<?xml version="1.0" encoding="UTF-8"?>
<svg xmlns="http://www.w3.org/2000/svg" width="48" height="49" viewBox="0 0 48 49" fill="none">
  <path d="M19 24.8594C19.8284 24.8594 20.5 24.1878 20.5 23.3594C20.5 22.5309 19.8284 21.8594 19 21.8594C18.1716 21.8594 17.5 22.5309 17.5 23.3594C17.5 24.1878 18.1716 24.8594 19 24.8594Z" fill="#4DDD75"></path>
  <path d="M24 24.8594C24.8284 24.8594 25.5 24.1878 25.5 23.3594C25.5 22.5309 24.8284 21.8594 24 21.8594C23.1716 21.8594 22.5 22.5309 22.5 23.3594C22.5 24.1878 23.1716 24.8594 24 24.8594Z" fill="#4DDD75"></path>
  <path d="M29 24.8594C29.8284 24.8594 30.5 24.1878 30.5 23.3594C30.5 22.5309 29.8284 21.8594 29 21.8594C28.1716 21.8594 27.5 22.5309 27.5 23.3594C27.5 24.1878 28.1716 24.8594 29 24.8594Z" fill="#4DDD75"></path>
  <path fill-rule="evenodd" clip-rule="evenodd" d="M11.442 31.1074C11.856 31.8234 11.612 32.7434 10.894 33.1574C10.178 33.5714 9.26 33.3274 8.846 32.6114C7.354 30.0354 6.5 27.0474 6.5 23.8594C6.5 14.2014 14.342 6.35938 24 6.35938C33.658 6.35938 41.5 14.2014 41.5 23.8594C41.5 33.5174 33.658 41.3594 24 41.3594H21C20.172 41.3594 19.5 40.6874 19.5 39.8594C19.5 39.0314 20.172 38.3594 21 38.3594H24C32.002 38.3594 38.5 31.8614 38.5 23.8594C38.5 15.8574 32.002 9.35938 24 9.35938C15.998 9.35938 9.5 15.8574 9.5 23.8594C9.5 26.4994 10.206 28.9754 11.442 31.1074Z" fill="#226FF2"></path>
  <path fill-rule="evenodd" clip-rule="evenodd" d="M9.258 31.0134C9.978 30.6054 10.894 30.8574 11.304 31.5754C11.714 32.2954 11.462 33.2134 10.742 33.6214C9.902 34.0994 8.974 34.3594 8 34.3594C4.532 34.3594 1.5 30.8694 1.5 26.3594C1.5 21.8494 4.532 18.3594 8 18.3594C8.828 18.3594 9.5 19.0314 9.5 19.8594C9.5 20.6874 8.828 21.3594 8 21.3594C7.28 21.3594 6.622 21.6854 6.082 22.1994C5.102 23.1354 4.5 24.6574 4.5 26.3594C4.5 28.0614 5.102 29.5834 6.082 30.5194C6.622 31.0334 7.28 31.3594 8 31.3594C8.448 31.3594 8.872 31.2334 9.258 31.0134Z" fill="#226FF2"></path>
  <path fill-rule="evenodd" clip-rule="evenodd" d="M37.2577 33.6214C36.5377 33.2134 36.2857 32.2954 36.6957 31.5754C37.1057 30.8574 38.0217 30.6054 38.7417 31.0134C39.1277 31.2334 39.5517 31.3594 39.9997 31.3594C40.7197 31.3594 41.3777 31.0334 41.9177 30.5194C42.8977 29.5834 43.4997 28.0614 43.4997 26.3594C43.4997 24.6574 42.8977 23.1354 41.9177 22.1994C41.3777 21.6854 40.7197 21.3594 39.9997 21.3594C39.1717 21.3594 38.4997 20.6874 38.4997 19.8594C38.4997 19.0314 39.1717 18.3594 39.9997 18.3594C43.4677 18.3594 46.4997 21.8494 46.4997 26.3594C46.4997 30.8694 43.4677 34.3594 39.9997 34.3594C39.0257 34.3594 38.0977 34.0994 37.2577 33.6214Z" fill="#226FF2"></path>
  <path fill-rule="evenodd" clip-rule="evenodd" d="M26.5 40.8594C26.5 42.2394 25.38 43.3594 24 43.3594H21C19.62 43.3594 18.5 42.2394 18.5 40.8594C18.5 39.4794 19.62 38.3594 21 38.3594H24C25.38 38.3594 26.5 39.4794 26.5 40.8594Z" fill="#226FF2"></path>
  <path fill-rule="evenodd" clip-rule="evenodd" d="M24 11.3594C30.898 11.3594 36.5 16.9614 36.5 23.8594C36.5 30.7574 30.898 36.3594 24 36.3594C22.666 36.3594 21.378 36.1494 20.172 35.7614L20.16 35.7574C20.056 35.7234 19.944 35.7234 19.842 35.7594L19.836 35.7614C18.478 36.2314 15.496 37.2754 15.496 37.2754C14.982 37.4554 14.41 37.3414 14.002 36.9794C13.596 36.6174 13.418 36.0634 13.536 35.5314L14.32 32.0414C14.354 31.8914 14.316 31.7354 14.218 31.6174C14.214 31.6114 14.212 31.6074 14.208 31.6034C12.508 29.4814 11.5 26.7874 11.5 23.8594C11.5 16.9614 17.102 11.3594 24 11.3594ZM24 14.3594C18.756 14.3594 14.5 18.6154 14.5 23.8594C14.5 26.0774 15.262 28.1194 16.538 29.7154C17.22 30.5474 17.482 31.6474 17.248 32.6974L17.056 33.5514C17.724 33.3194 18.386 33.0874 18.85 32.9274C19.578 32.6734 20.372 32.6674 21.092 32.9054C22.008 33.1994 22.986 33.3594 24 33.3594C29.244 33.3594 33.5 29.1034 33.5 23.8594C33.5 18.6154 29.244 14.3594 24 14.3594Z" fill="#226FF2"></path>
</svg>
