<?xml version="1.0" encoding="UTF-8"?>
<svg xmlns="http://www.w3.org/2000/svg" width="48" height="49" viewBox="0 0 48 49" fill="none">
  <g clip-path="url(#clip0_6126_5041)">
    <path fill-rule="evenodd" clip-rule="evenodd" d="M39 42.8613V6.86133C39 5.26983 38.3699 3.74358 37.2449 2.61858C36.1199 1.49358 34.59 0.861328 33 0.861328C28.005 0.861328 19.995 0.861328 15 0.861328C13.41 0.861328 11.8801 1.49358 10.7551 2.61858C9.63007 3.74358 9 5.26983 9 6.86133V42.8613C9 44.4528 9.63007 45.9791 10.7551 47.1041C11.8801 48.2291 13.41 48.8613 15 48.8613H33C34.59 48.8613 36.1199 48.2291 37.2449 47.1041C38.3699 45.9791 39 44.4528 39 42.8613ZM36 39.8613V42.8613C36 43.6571 35.6851 44.4198 35.1226 44.9823C34.5601 45.5456 33.795 45.8613 33 45.8613H15C14.205 45.8613 13.4399 45.5456 12.8774 44.9823C12.3149 44.4198 12 43.6571 12 42.8613V39.8613H36ZM21.75 44.3613H26.25C27.075 44.3613 27.75 43.6893 27.75 42.8613C27.75 42.0333 27.075 41.3613 26.25 41.3613H21.75C20.925 41.3613 20.25 42.0333 20.25 42.8613C20.25 43.6893 20.925 44.3613 21.75 44.3613ZM12 9.86133V36.8613H36V9.86133H12ZM36 6.86133H12C12 6.06558 12.3149 5.30283 12.8774 4.74033C13.4399 4.17708 14.205 3.86133 15 3.86133H33C33.795 3.86133 34.5601 4.17708 35.1226 4.74033C35.6851 5.30283 36 6.06558 36 6.86133Z" fill="#226FF2"></path>
    <path d="M26.25 44.3613H21.75C20.925 44.3613 20.25 43.6893 20.25 42.8613C20.25 42.0333 20.925 41.3613 21.75 41.3613H26.25C27.075 41.3613 27.75 42.0333 27.75 42.8613C27.75 43.6893 27.075 44.3613 26.25 44.3613Z" fill="#45DA68"></path>
  </g>
  <defs>
    <clipPath id="clip0_6126_5041">
      <rect width="48" height="48" fill="white" transform="translate(0 0.861328)"></rect>
    </clipPath>
  </defs>
</svg>
