<?xml version="1.0" encoding="UTF-8"?>
<svg xmlns="http://www.w3.org/2000/svg" width="48" height="49" viewBox="0 0 48 49" fill="none">
  <rect y="0.861328" width="48" height="48" rx="24" fill="#45DA68"></rect>
  <g clip-path="url(#clip0_6126_4759)">
    <path d="M28.5121 19.6855C28.5009 19.7292 28.5009 19.7729 28.4897 19.8177C28.4024 20.3116 28.3576 21.2009 28.5771 21.6724C28.5771 21.6724 28.5995 21.5078 28.6544 21.3107C28.7316 21.0139 28.9612 20.6409 29.4664 20.6409C29.6859 20.6409 29.8617 20.707 29.9827 20.8167C30.3232 21.1236 30.3444 21.6724 30.3444 21.6724C30.3444 21.6724 30.63 23.9774 29.2244 24.2294C29.1147 24.6908 28.95 25.1187 28.7193 25.5353C28.3464 26.2375 27.83 27.0719 27.1502 27.8179C26.4592 28.575 25.4713 28.9815 24.4387 28.9815C23.9224 28.9815 23.4284 28.8942 22.9569 28.6847C22.5067 28.4876 22.0788 28.202 21.7272 27.8179C21.0462 27.0719 20.531 26.2375 20.158 25.5353C19.9273 25.1187 19.7627 24.6897 19.6529 24.2294C18.2484 23.9774 18.5329 21.6724 18.5329 21.6724C18.5329 21.6724 18.5553 20.9478 19.0593 20.7171C19.1601 20.6633 19.2699 20.6409 19.4132 20.6409C19.8635 20.6409 20.083 20.9377 20.1816 21.2009C20.2801 21.4529 20.3025 21.6724 20.3025 21.6724C20.5321 21.2121 20.4772 20.2343 20.3899 19.6967" stroke="#1636AE" stroke-width="0.896" stroke-miterlimit="10" stroke-linecap="round" stroke-linejoin="round"></path>
    <path d="M20.1372 30.123C20.8506 30.683 22.5082 31.0784 24.4391 31.0784C26.37 31.0784 28.0287 30.683 28.741 30.123" stroke="#1636AE" stroke-width="0.896" stroke-miterlimit="10" stroke-linecap="round" stroke-linejoin="round"></path>
    <path d="M26.9752 27.998C26.9752 27.998 27.6225 29.4473 28.7425 30.1272C28.896 30.2369 29.0718 30.3243 29.2689 30.3792L32.9683 31.4544C34.823 31.992 36.1838 33.3091 36.5131 34.9006L37.0507 37.4475C37.128 37.8316 36.7651 38.1833 36.2936 38.1833H12.5854C12.1139 38.1833 11.751 37.8316 11.8283 37.4475L12.3659 34.9006C12.6952 33.3091 14.056 31.992 15.9107 31.4544L19.61 30.3792C19.7971 30.3131 19.9718 30.2369 20.1364 30.1272C21.2564 29.4462 21.9038 27.998 21.9038 27.998" stroke="#1636AE" stroke-width="0.896" stroke-miterlimit="10" stroke-linecap="round" stroke-linejoin="round"></path>
    <path d="M21.6836 30.7773L24.4388 36.4983L27.194 30.7773" stroke="#1636AE" stroke-width="0.896" stroke-miterlimit="10" stroke-linecap="round" stroke-linejoin="round"></path>
    <path d="M18.5786 17.0755C17.0419 16.5928 15.3406 16.0552 13.8589 15.5825C16.8336 14.7044 22.3317 13.058 24.4395 12.4219C26.5362 13.048 32.0454 14.6944 35.0202 15.5825C33.5384 16.054 31.8371 16.5928 30.3005 17.0755" stroke="#1636AE" stroke-width="0.896" stroke-miterlimit="10" stroke-linecap="round" stroke-linejoin="round"></path>
    <path d="M30.3005 16.8295V19.5668C27.8937 19.569 26.4085 20.1514 25.5349 20.7137C24.8607 21.1471 24.0173 21.1471 23.3431 20.7148C22.4695 20.1537 20.9844 19.5724 18.5786 19.5735V16.8116C18.5786 16.5081 18.7757 16.2437 19.0692 16.1676C20.4692 15.8047 24.714 14.9423 29.7898 16.1765C30.0877 16.2493 30.3005 16.5226 30.3005 16.8295Z" stroke="#1636AE" stroke-width="0.896" stroke-miterlimit="10" stroke-linecap="round" stroke-linejoin="round"></path>
    <path d="M30.1019 19.5684C30.1019 19.5684 30.317 20.2583 29.981 20.8183" stroke="#1636AE" stroke-width="0.896" stroke-miterlimit="10" stroke-linecap="round" stroke-linejoin="round"></path>
    <path d="M18.7768 19.5684C18.7768 19.5684 18.5617 20.2583 18.8977 20.8183" stroke="#1636AE" stroke-width="0.896" stroke-miterlimit="10" stroke-linecap="round" stroke-linejoin="round"></path>
    <path d="M16.3882 15.9219V19.5876" stroke="#1636AE" stroke-width="0.896" stroke-miterlimit="10" stroke-linecap="round" stroke-linejoin="round"></path>
    <path d="M17.439 25.5553L17.1624 20.3226C17.1411 19.9105 16.8006 19.5879 16.3885 19.5879C15.9763 19.5879 15.6358 19.9105 15.6145 20.3226L15.3379 25.5541H17.439V25.5553Z" stroke="#1636AE" stroke-width="0.896" stroke-miterlimit="10" stroke-linecap="round" stroke-linejoin="round"></path>
    <path d="M17.2105 21.1797H15.5742" stroke="#1636AE" stroke-width="0.896" stroke-miterlimit="10" stroke-linecap="round" stroke-linejoin="round"></path>
  </g>
  <defs>
    <clipPath id="clip0_6126_4759">
      <rect width="26.88" height="26.88" fill="white" transform="translate(11 11.8613)"></rect>
    </clipPath>
  </defs>
</svg>
