<?xml version="1.0" encoding="UTF-8"?>
<svg xmlns="http://www.w3.org/2000/svg" width="48" height="49" viewBox="0 0 48 49" fill="none">
  <path d="M41.835 27.4863C42.898 26.3755 43.494 24.8989 43.5 23.3613V21.8613C43.5 20.27 42.8679 18.7439 41.7426 17.6187C40.6174 16.4935 39.0913 15.8613 37.5 15.8613C35.9087 15.8613 34.3826 16.4935 33.2574 17.6187C32.1321 18.7439 31.5 20.27 31.5 21.8613V23.3613C31.5062 24.9061 32.1079 26.3891 33.18 27.5013H33.09C31.9493 26.1807 30.5372 25.1216 28.95 24.3963C29.7447 23.7085 30.3832 22.8589 30.823 21.9043C31.2628 20.9498 31.4936 19.9123 31.5 18.8613V15.8613C31.5 13.8722 30.7098 11.9646 29.3033 10.558C27.8968 9.1515 25.9891 8.36133 24 8.36133C22.0109 8.36133 20.1032 9.1515 18.6967 10.558C17.2902 11.9646 16.5 13.8722 16.5 15.8613V18.8613C16.5 19.9199 16.7277 20.9661 17.1677 21.9289C17.6077 22.8917 18.2496 23.7485 19.05 24.4413C17.4628 25.1666 16.0507 26.2257 14.91 27.5463H14.82C15.9029 26.4229 16.5055 24.9217 16.5 23.3613V21.8613C16.5 20.27 15.8679 18.7439 14.7426 17.6187C13.6174 16.4935 12.0913 15.8613 10.5 15.8613C8.9087 15.8613 7.38258 16.4935 6.25736 17.6187C5.13214 18.7439 4.5 20.27 4.5 21.8613V23.3613C4.50596 24.8989 5.10197 26.3755 6.165 27.4863C4.75417 28.2618 3.57716 29.4014 2.75665 30.7865C1.93614 32.1716 1.50218 33.7514 1.5 35.3613V39.8613C1.5 40.2592 1.65804 40.6407 1.93934 40.922C2.22064 41.2033 2.60218 41.3613 3 41.3613H45C45.3978 41.3613 45.7794 41.2033 46.0607 40.922C46.342 40.6407 46.5 40.2592 46.5 39.8613V35.3613C46.4978 33.7514 46.0639 32.1716 45.2434 30.7865C44.4228 29.4014 43.2458 28.2618 41.835 27.4863ZM34.5 23.3613V21.8613C34.5 21.0657 34.8161 20.3026 35.3787 19.74C35.9413 19.1774 36.7043 18.8613 37.5 18.8613C38.2957 18.8613 39.0587 19.1774 39.6213 19.74C40.1839 20.3026 40.5 21.0657 40.5 21.8613V23.3613C40.5 24.157 40.1839 24.92 39.6213 25.4826C39.0587 26.0453 38.2957 26.3613 37.5 26.3613C36.7043 26.3613 35.9413 26.0453 35.3787 25.4826C34.8161 24.92 34.5 24.157 34.5 23.3613ZM19.5 18.8613V15.8613C19.5 14.6679 19.9741 13.5233 20.818 12.6793C21.6619 11.8354 22.8065 11.3613 24 11.3613C25.1935 11.3613 26.3381 11.8354 27.182 12.6793C28.0259 13.5233 28.5 14.6679 28.5 15.8613V18.8613C28.5 20.0548 28.0259 21.1994 27.182 22.0433C26.3381 22.8872 25.1935 23.3613 24 23.3613C22.8065 23.3613 21.6619 22.8872 20.818 22.0433C19.9741 21.1994 19.5 20.0548 19.5 18.8613ZM7.5 23.3613V21.8613C7.5 21.0657 7.81607 20.3026 8.37868 19.74C8.94129 19.1774 9.70435 18.8613 10.5 18.8613C11.2956 18.8613 12.0587 19.1774 12.6213 19.74C13.1839 20.3026 13.5 21.0657 13.5 21.8613V23.3613C13.5 24.157 13.1839 24.92 12.6213 25.4826C12.0587 26.0453 11.2956 26.3613 10.5 26.3613C9.70435 26.3613 8.94129 26.0453 8.37868 25.4826C7.81607 24.92 7.5 24.157 7.5 23.3613ZM4.5 35.3613C4.5 33.77 5.13214 32.2439 6.25736 31.1187C7.38258 29.9935 8.9087 29.3613 10.5 29.3613C11.4588 29.369 12.4012 29.611 13.245 30.0663C12.4256 31.7111 11.9994 33.5237 12 35.3613V38.3613H4.5V35.3613ZM33 38.3613H15V35.3613C15 32.9744 15.9482 30.6852 17.636 28.9974C19.3239 27.3095 21.6131 26.3613 24 26.3613C26.3869 26.3613 28.6761 27.3095 30.364 28.9974C32.0518 30.6852 33 32.9744 33 35.3613V38.3613ZM43.5 38.3613H36V35.3613C36.0006 33.5237 35.5744 31.7111 34.755 30.0663C35.5988 29.611 36.5412 29.369 37.5 29.3613C39.0913 29.3613 40.6174 29.9935 41.7426 31.1187C42.8679 32.2439 43.5 33.77 43.5 35.3613V38.3613Z" fill="#226FF2"></path>
</svg>
