<?xml version="1.0" encoding="UTF-8"?>
<svg xmlns="http://www.w3.org/2000/svg" width="48" height="49" viewBox="0 0 48 49" fill="none">
  <rect y="0.861328" width="48" height="48" rx="24" fill="#45DA68"></rect>
  <g clip-path="url(#clip0_6126_4787)">
    <path d="M20.6771 25.6719V26.3943C20.6771 27.138 20.2089 27.7999 19.5089 28.0496L15.7379 29.3903C13.844 30.0634 12.4608 31.7064 12.1192 33.6866L11.5715 36.864C11.4897 37.3412 11.8571 37.778 12.3409 37.778H36.5385C37.0224 37.778 37.3908 37.3412 37.308 36.864L36.7603 33.6877C36.4187 31.7064 35.0355 30.0645 33.1416 29.3914L29.3705 28.0508C28.6705 27.8021 28.2024 27.1391 28.2024 26.3954V25.673" stroke="#1333A8" stroke-width="0.896" stroke-miterlimit="10" stroke-linecap="round" stroke-linejoin="round"></path>
    <path d="M25.0676 30.5097H23.8132C23.1994 30.5097 22.7021 30.0124 22.7021 29.3987V29.1657C22.7021 28.552 23.1994 28.0547 23.8132 28.0547H25.0676C25.6813 28.0547 26.1786 28.552 26.1786 29.1657V29.3987C26.1786 30.0124 25.6813 30.5097 25.0676 30.5097Z" stroke="#1333A8" stroke-width="0.896" stroke-miterlimit="10" stroke-linecap="round" stroke-linejoin="round"></path>
    <path d="M25.6726 34.5957L25.4038 30.4629" stroke="#1333A8" stroke-width="0.896" stroke-miterlimit="10" stroke-linecap="round" stroke-linejoin="round"></path>
    <path d="M23.4773 30.4629L23.2085 34.5845" stroke="#1333A8" stroke-width="0.896" stroke-miterlimit="10" stroke-linecap="round" stroke-linejoin="round"></path>
    <path d="M20.0701 21.4107C20.06 21.3323 20.032 20.0331 19.9502 19.8416C19.8506 19.5571 19.6131 19.248 19.1438 19.248C18.996 19.248 18.8728 19.2726 18.7731 19.3342C18.2411 19.5705 18.2142 20.3344 18.2142 20.3344C18.2142 20.3344 17.9186 22.7625 19.3902 23.0336C19.5146 23.5174 19.6893 23.9732 19.9222 24.4089C20.3198 25.1504 20.8653 26.0284 21.5821 26.8203C21.9517 27.219 22.3974 27.527 22.8813 27.7364C23.3752 27.9492 23.896 28.0489 24.4414 28.0489C25.529 28.0489 26.5683 27.6132 27.2986 26.8214C28.0154 26.0284 28.5608 25.1504 28.9584 24.41C29.0021 24.3283 29.0435 24.2465 29.0827 24.1636C29.2552 23.803 29.3896 23.4278 29.4904 23.0336C30.961 22.7625 30.6664 20.3344 30.6664 20.3344C30.6664 20.3344 30.6384 19.7553 30.2822 19.4328C30.159 19.3196 29.9731 19.248 29.7368 19.248C29.2059 19.248 28.9696 19.6422 28.8834 19.9547C28.8352 20.1115 28.8184 21.3692 28.8117 21.4275C28.833 20.8652 28.8117 19.0217 28.6202 18.4763C28.4141 17.8939 27.7074 17.643 27.135 17.914C26.6098 18.1582 25.6499 18.5009 24.4426 18.4595C23.2318 18.5009 22.2709 18.1571 21.7467 17.914C21.1733 17.643 20.4677 17.8928 20.2616 18.4763C20.0734 19.0184 20.0499 20.8518 20.0701 21.4107ZM20.0701 21.4107V21.4308C20.0701 21.4241 20.0701 21.4174 20.0701 21.4107Z" stroke="#1333A8" stroke-width="0.896" stroke-miterlimit="10" stroke-linecap="round" stroke-linejoin="round"></path>
    <path d="M18.8965 19.2824V17.2597C18.8965 14.808 20.8822 12.8223 23.3339 12.8223H25.5459C27.9976 12.8223 29.9834 14.808 29.9834 17.2597V19.2835" stroke="#1333A8" stroke-width="0.896" stroke-miterlimit="10" stroke-linecap="round" stroke-linejoin="round"></path>
    <path d="M24.4068 37.7755L20.4644 27.2363" stroke="#1333A8" stroke-width="0.896" stroke-miterlimit="10" stroke-linecap="round" stroke-linejoin="round"></path>
    <path d="M28.4161 27.2363L24.4849 37.7755" stroke="#1333A8" stroke-width="0.896" stroke-miterlimit="10" stroke-linecap="round" stroke-linejoin="round"></path>
    <path d="M17.1846 35.9919C17.5217 35.9718 18.1478 35.8743 18.4894 35.6179M18.4894 35.6179C17.8599 35.1497 17.3414 34.1495 17.3627 32.1078C17.3627 32.1078 17.4142 30.0358 18.4894 30.0156C19.5612 30.0391 19.6127 32.1078 19.6127 32.1078C19.634 34.1462 19.1155 35.1463 18.4894 35.6179ZM18.4894 35.6179C18.831 35.8743 19.4582 35.9718 19.7919 35.9953" stroke="#1333A8" stroke-width="0.896" stroke-miterlimit="10" stroke-linecap="round" stroke-linejoin="round"></path>
    <path d="M16.964 36.2128H16.581C16.4589 36.2128 16.3604 36.1142 16.3604 35.9921C16.3604 35.87 16.4589 35.7715 16.581 35.7715H16.964C17.0861 35.7715 17.1847 35.87 17.1847 35.9921C17.1847 36.1142 17.0861 36.2128 16.964 36.2128Z" stroke="#1333A8" stroke-width="0.896" stroke-miterlimit="10" stroke-linecap="round" stroke-linejoin="round"></path>
    <path d="M20.0126 36.2128H20.3957C20.5178 36.2128 20.6163 36.1142 20.6163 35.9921C20.6163 35.87 20.5178 35.7715 20.3957 35.7715H20.0126C19.8906 35.7715 19.792 35.87 19.792 35.9921C19.792 36.1142 19.8906 36.2128 20.0126 36.2128Z" stroke="#1333A8" stroke-width="0.896" stroke-miterlimit="10" stroke-linecap="round" stroke-linejoin="round"></path>
    <path d="M30.3918 35.8823C31.2077 35.8823 31.8691 35.2209 31.8691 34.405C31.8691 33.5891 31.2077 32.9277 30.3918 32.9277C29.576 32.9277 28.9146 33.5891 28.9146 34.405C28.9146 35.2209 29.576 35.8823 30.3918 35.8823Z" stroke="#1333A8" stroke-width="0.896" stroke-miterlimit="10" stroke-linecap="round" stroke-linejoin="round"></path>
    <path d="M30.3915 34.9657C30.7008 34.9657 30.9515 34.715 30.9515 34.4057C30.9515 34.0964 30.7008 33.8457 30.3915 33.8457C30.0823 33.8457 29.8315 34.0964 29.8315 34.4057C29.8315 34.715 30.0823 34.9657 30.3915 34.9657Z" fill="#1333A8"></path>
    <path d="M30.4746 32.9283C30.4746 32.9283 29.9695 31.675 30.8319 30.5438C30.8319 30.5438 31.4154 29.7173 31.2239 28.707" stroke="#1333A8" stroke-width="0.896" stroke-miterlimit="10" stroke-linecap="round" stroke-linejoin="round"></path>
    <path d="M18.4898 30.0165C18.4898 30.0165 18.3498 29.125 19.3802 28.0957" stroke="#1333A8" stroke-width="0.896" stroke-miterlimit="10" stroke-linecap="round" stroke-linejoin="round"></path>
  </g>
  <defs>
    <clipPath id="clip0_6126_4787">
      <rect width="26.88" height="26.88" fill="white" transform="translate(11 11.8613)"></rect>
    </clipPath>
  </defs>
</svg>
