<?xml version="1.0" encoding="UTF-8"?>
<svg xmlns="http://www.w3.org/2000/svg" width="48" height="49" viewBox="0 0 48 49" fill="none">
  <path d="M34.0005 43.6813C33.6027 43.6813 33.2211 43.5233 32.9398 43.242C32.6585 42.9607 32.5005 42.5792 32.5005 42.1813V34.8613C32.5005 34.4635 32.6585 34.082 32.9398 33.8007C33.2211 33.5194 33.6027 33.3613 34.0005 33.3613C34.3983 33.3613 34.7798 33.5194 35.0611 33.8007C35.3425 34.082 35.5005 34.4635 35.5005 34.8613V42.1813C35.5005 42.5792 35.3425 42.9607 35.0611 43.242C34.7798 43.5233 34.3983 43.6813 34.0005 43.6813Z" fill="#226FF2"></path>
  <path d="M14.0005 16.361C13.6027 16.361 13.2211 16.203 12.9398 15.9217C12.6585 15.6404 12.5005 15.2588 12.5005 14.861V7.54102C12.5005 7.14319 12.6585 6.76166 12.9398 6.48036C13.2211 6.19905 13.6027 6.04102 14.0005 6.04102C14.3983 6.04102 14.7798 6.19905 15.0611 6.48036C15.3425 6.76166 15.5005 7.14319 15.5005 7.54102V14.861C15.5005 15.2588 15.3425 15.6404 15.0611 15.9217C14.7798 16.203 14.3983 16.361 14.0005 16.361Z" fill="#226FF2"></path>
  <path d="M24.0003 46.361C19.2675 46.3598 14.6672 44.7974 10.9128 41.9158C7.1583 39.0342 4.45933 34.9945 3.23431 30.423C2.00928 25.8515 2.32663 21.0035 4.13714 16.6307C5.94765 12.2579 9.15019 8.60454 13.2483 6.23699C13.593 6.03755 14.0029 5.98324 14.3878 6.08601C14.5783 6.1369 14.757 6.22482 14.9135 6.34475C15.0701 6.46468 15.2015 6.61427 15.3003 6.78499C15.399 6.95571 15.4632 7.14421 15.4891 7.33972C15.515 7.53524 15.5021 7.73394 15.4512 7.92449C15.4004 8.11503 15.3124 8.29369 15.1925 8.45026C15.0726 8.60683 14.923 8.73824 14.7523 8.83699C11.2258 10.8736 8.46981 14.0167 6.91152 17.7791C5.35323 21.5414 5.07974 25.7128 6.13344 29.6464C7.18714 33.58 9.50916 37.0561 12.7395 39.5357C15.9698 42.0153 19.928 43.3599 24.0003 43.361C24.3981 43.361 24.7796 43.519 25.0609 43.8003C25.3422 44.0816 25.5003 44.4632 25.5003 44.861C25.5003 45.2588 25.3422 45.6404 25.0609 45.9217C24.7796 46.203 24.3981 46.361 24.0003 46.361Z" fill="#226FF2"></path>
  <path d="M34 43.6853C33.6691 43.6866 33.3472 43.5784 33.0842 43.3777C32.8212 43.1769 32.6319 42.8948 32.5459 42.5754C32.4599 42.2559 32.4819 41.9169 32.6085 41.6113C32.7351 41.3056 32.9593 41.0504 33.246 40.8853C36.7723 38.8488 39.5282 35.7058 41.0866 31.9437C42.6449 28.1816 42.9185 24.0104 41.8651 20.0769C40.8116 16.1434 38.49 12.6673 35.26 10.1876C32.03 7.7078 28.0721 6.36289 24 6.36133C23.6022 6.36133 23.2206 6.20329 22.9393 5.92199C22.658 5.64068 22.5 5.25915 22.5 4.86133C22.5 4.4635 22.658 4.08197 22.9393 3.80067C23.2206 3.51936 23.6022 3.36133 24 3.36133C28.7328 3.36248 33.333 4.92495 37.0875 7.80652C40.842 10.6881 43.5409 14.7278 44.766 19.2993C45.991 23.8708 45.6736 28.7188 43.8631 33.0916C42.0526 37.4644 38.8501 41.1178 34.752 43.4853C34.5232 43.6167 34.2639 43.6857 34 43.6853Z" fill="#226FF2"></path>
  <path d="M34 43.6853C33.6691 43.6866 33.3472 43.5784 33.0842 43.3777C32.8212 43.1769 32.6319 42.8948 32.5459 42.5754C32.4599 42.2559 32.4819 41.9169 32.6085 41.6113C32.7351 41.3056 32.9593 41.0504 33.246 40.8853C36.7723 38.8488 39.5282 35.7058 41.0866 31.9437C42.6449 28.1816 42.9185 24.0104 41.8651 20.0769C40.8116 16.1434 38.49 12.6673 35.26 10.1876C32.03 7.7078 28.0721 6.36289 24 6.36133C23.6022 6.36133 23.2206 6.20329 22.9393 5.92199C22.658 5.64068 22.5 5.25915 22.5 4.86133C22.5 4.4635 22.658 4.08197 22.9393 3.80067C23.2206 3.51936 23.6022 3.36133 24 3.36133C28.7328 3.36248 33.333 4.92495 37.0875 7.80652C40.842 10.6881 43.5409 14.7278 44.766 19.2993C45.991 23.8708 45.6736 28.7188 43.8631 33.0916C42.0526 37.4644 38.8501 41.1178 34.752 43.4853C34.5232 43.6167 34.2639 43.6857 34 43.6853Z" fill="#226FF2"></path>
  <path d="M24.0003 46.361C19.2675 46.3598 14.6672 44.7974 10.9128 41.9158C7.1583 39.0342 4.45933 34.9945 3.23431 30.423C2.00928 25.8515 2.32663 21.0035 4.13714 16.6307C5.94765 12.2579 9.15019 8.60454 13.2483 6.23699C13.593 6.03755 14.0029 5.98324 14.3878 6.08601C14.5783 6.1369 14.757 6.22482 14.9135 6.34475C15.0701 6.46468 15.2015 6.61427 15.3003 6.78499C15.399 6.95571 15.4632 7.14421 15.4891 7.33972C15.515 7.53524 15.5021 7.73394 15.4512 7.92449C15.4004 8.11503 15.3124 8.29369 15.1925 8.45026C15.0726 8.60683 14.923 8.73824 14.7523 8.83699C11.2258 10.8736 8.46981 14.0167 6.91152 17.7791C5.35323 21.5414 5.07974 25.7128 6.13344 29.6464C7.18714 33.58 9.50916 37.0561 12.7395 39.5357C15.9698 42.0153 19.928 43.3599 24.0003 43.361C24.3981 43.361 24.7796 43.519 25.0609 43.8003C25.3422 44.0816 25.5003 44.4632 25.5003 44.861C25.5003 45.2588 25.3422 45.6404 25.0609 45.9217C24.7796 46.203 24.3981 46.361 24.0003 46.361Z" fill="#226FF2"></path>
  <path d="M24.0005 26.3613C23.0116 26.3613 22.0449 26.0681 21.2226 25.5187C20.4004 24.9693 19.7595 24.1884 19.3811 23.2747C19.0027 22.3611 18.9036 21.3558 19.0966 20.3859C19.2895 19.416 19.7657 18.5251 20.465 17.8258C21.1642 17.1265 22.0551 16.6503 23.025 16.4574C23.9949 16.2645 25.0003 16.3635 25.9139 16.7419C26.8275 17.1204 27.6084 17.7612 28.1578 18.5835C28.7072 19.4057 29.0005 20.3724 29.0005 21.3613C29.0005 21.7592 28.8425 22.1407 28.5612 22.422C28.2798 22.7033 27.8983 22.8613 27.5005 22.8613C27.1027 22.8613 26.7211 22.7033 26.4398 22.422C26.1585 22.1407 26.0005 21.7592 26.0005 21.3613C26.0005 20.9658 25.8832 20.5791 25.6634 20.2502C25.4437 19.9213 25.1313 19.6649 24.7659 19.5136C24.4004 19.3622 23.9983 19.3226 23.6103 19.3998C23.2223 19.4769 22.866 19.6674 22.5863 19.9471C22.3066 20.2268 22.1161 20.5832 22.0389 20.9712C21.9618 21.3591 22.0014 21.7612 22.1527 22.1267C22.3041 22.4922 22.5605 22.8045 22.8894 23.0243C23.2182 23.244 23.6049 23.3613 24.0005 23.3613C24.3983 23.3613 24.7798 23.5194 25.0612 23.8007C25.3425 24.082 25.5005 24.4635 25.5005 24.8613C25.5005 25.2592 25.3425 25.6407 25.0612 25.922C24.7798 26.2033 24.3983 26.3613 24.0005 26.3613Z" fill="#4DDD75"></path>
  <path d="M24.0005 33.3613C22.6744 33.3613 21.4026 32.8345 20.465 31.8969C19.5273 30.9592 19.0005 29.6874 19.0005 28.3613C19.0005 27.9635 19.1585 27.582 19.4398 27.3007C19.7211 27.0194 20.1027 26.8613 20.5005 26.8613C20.8983 26.8613 21.2798 27.0194 21.5611 27.3007C21.8425 27.582 22.0005 27.9635 22.0005 28.3613C22.0005 28.7569 22.1178 29.1436 22.3375 29.4725C22.5573 29.8014 22.8697 30.0577 23.2351 30.2091C23.6006 30.3605 24.0027 30.4001 24.3907 30.3229C24.7786 30.2457 25.135 30.0552 25.4147 29.7755C25.6944 29.4958 25.8849 29.1395 25.9621 28.7515C26.0392 28.3635 25.9996 27.9614 25.8482 27.596C25.6969 27.2305 25.4405 26.9182 25.1116 26.6984C24.7827 26.4786 24.3961 26.3613 24.0005 26.3613C23.6027 26.3613 23.2211 26.2033 22.9398 25.922C22.6585 25.6407 22.5005 25.2592 22.5005 24.8613C22.5005 24.4635 22.6585 24.082 22.9398 23.8007C23.2211 23.5194 23.6027 23.3613 24.0005 23.3613C25.3266 23.3613 26.5983 23.8881 27.536 24.8258C28.4737 25.7635 29.0005 27.0352 29.0005 28.3613C29.0005 29.6874 28.4737 30.9592 27.536 31.8969C26.5983 32.8345 25.3266 33.3613 24.0005 33.3613Z" fill="#4DDD75"></path>
  <path d="M24 18.3613C23.6022 18.3613 23.2206 18.2033 22.9393 17.922C22.658 17.6407 22.5 17.2592 22.5 16.8613V14.8613C22.5 14.4635 22.658 14.082 22.9393 13.8007C23.2206 13.5194 23.6022 13.3613 24 13.3613C24.3978 13.3613 24.7794 13.5194 25.0607 13.8007C25.342 14.082 25.5 14.4635 25.5 14.8613V16.8613C25.5 17.2592 25.342 17.6407 25.0607 17.922C24.7794 18.2033 24.3978 18.3613 24 18.3613Z" fill="#4DDD75"></path>
  <path d="M24 36.3613C23.6022 36.3613 23.2206 36.2033 22.9393 35.922C22.658 35.6407 22.5 35.2592 22.5 34.8613V32.8613C22.5 32.4635 22.658 32.082 22.9393 31.8007C23.2206 31.5194 23.6022 31.3613 24 31.3613C24.3978 31.3613 24.7794 31.5194 25.0607 31.8007C25.342 32.082 25.5 32.4635 25.5 32.8613V34.8613C25.5 35.2592 25.342 35.6407 25.0607 35.922C24.7794 36.2033 24.3978 36.3613 24 36.3613Z" fill="#4DDD75"></path>
</svg>
