<?xml version="1.0" encoding="UTF-8"?>
<svg xmlns="http://www.w3.org/2000/svg" width="48" height="49" viewBox="0 0 48 49" fill="none">
  <path d="M30.4545 30.1341C30.4545 30.556 30.2869 30.9606 29.9886 31.259C29.6902 31.5574 29.2856 31.725 28.8636 31.725H25.6818V34.9068C25.6818 35.3287 25.5142 35.7334 25.2159 36.0317C24.9175 36.3301 24.5128 36.4977 24.0909 36.4977C23.669 36.4977 23.2643 36.3301 22.966 36.0317C22.6676 35.7334 22.5 35.3287 22.5 34.9068V31.725H19.3182C18.8962 31.725 18.4916 31.5574 18.1932 31.259C17.8949 30.9606 17.7273 30.556 17.7273 30.1341C17.7273 29.7121 17.8949 29.3075 18.1932 29.0091C18.4916 28.7108 18.8962 28.5431 19.3182 28.5431H22.5V25.3613C22.5 24.9394 22.6676 24.5347 22.966 24.2364C23.2643 23.938 23.669 23.7704 24.0909 23.7704C24.5128 23.7704 24.9175 23.938 25.2159 24.2364C25.5142 24.5347 25.6818 24.9394 25.6818 25.3613V28.5431H28.8636C29.2856 28.5431 29.6902 28.7108 29.9886 29.0091C30.2869 29.3075 30.4545 29.7121 30.4545 30.1341ZM43.1818 18.9977V34.9068C43.1793 37.0157 42.3404 39.0375 40.8492 40.5287C39.358 42.0199 37.3362 42.8588 35.2273 42.8613H12.9545C10.8456 42.8588 8.82384 42.0199 7.33262 40.5287C5.8414 39.0375 5.00253 37.0157 5 34.9068L5 15.8159C5.00253 13.707 5.8414 11.6852 7.33262 10.194C8.82384 8.70273 10.8456 7.86385 12.9545 7.86133H16.9764C17.7168 7.86194 18.447 8.03401 19.1098 8.36406L24.1307 10.8841C24.3525 10.9905 24.5958 11.0449 24.8418 11.0431H35.2273C37.3362 11.0457 39.358 11.8845 40.8492 13.3758C42.3404 14.867 43.1793 16.8888 43.1818 18.9977ZM8.18182 15.8159V17.4068H39.7073C39.3794 16.4794 38.773 15.676 37.9711 15.1065C37.1692 14.5369 36.2109 14.229 35.2273 14.225H24.8418C24.1014 14.2243 23.3712 14.0523 22.7084 13.7222L17.6875 11.2102C17.4663 11.101 17.2231 11.0438 16.9764 11.0431H12.9545C11.6887 11.0431 10.4748 11.546 9.57972 12.441C8.68466 13.3361 8.18182 14.5501 8.18182 15.8159ZM40 34.9068V20.5886H8.18182V34.9068C8.18182 36.1726 8.68466 37.3866 9.57972 38.2816C10.4748 39.1767 11.6887 39.6795 12.9545 39.6795H35.2273C36.4931 39.6795 37.707 39.1767 38.6021 38.2816C39.4972 37.3866 40 36.1726 40 34.9068Z" fill="#226FF2"></path>
  <path d="M29.9884 31.2581C30.2867 30.9598 30.4543 30.5551 30.4543 30.1332C30.4543 29.7112 30.2867 29.3066 29.9884 29.0082C29.69 28.7099 29.2853 28.5423 28.8634 28.5423H25.6816V25.3604C25.6816 24.9385 25.514 24.5339 25.2156 24.2355C24.9173 23.9371 24.5126 23.7695 24.0907 23.7695C23.6688 23.7695 23.2641 23.9371 22.9657 24.2355C22.6674 24.5339 22.4998 24.9385 22.4998 25.3604V28.5423H19.318C18.896 28.5423 18.4914 28.7099 18.193 29.0082C17.8947 29.3066 17.7271 29.7112 17.7271 30.1332C17.7271 30.5551 17.8947 30.9598 18.193 31.2581C18.4914 31.5565 18.896 31.7241 19.318 31.7241H22.4998V34.9059C22.4998 35.3278 22.6674 35.7325 22.9657 36.0308C23.2641 36.3292 23.6688 36.4968 24.0907 36.4968C24.5126 36.4968 24.9173 36.3292 25.2156 36.0308C25.514 35.7325 25.6816 35.3278 25.6816 34.9059V31.7241H28.8634C29.2853 31.7241 29.69 31.5565 29.9884 31.2581Z" fill="#4DDD75"></path>
</svg>
