<?xml version="1.0" encoding="UTF-8"?>
<svg xmlns="http://www.w3.org/2000/svg" width="48" height="49" viewBox="0 0 48 49" fill="none">
  <rect y="0.861328" width="48" height="48" rx="24" fill="#45DA68"></rect>
  <g clip-path="url(#clip0_6126_4740)">
    <path d="M35.141 18.7188C35.1027 18.6806 35.1027 18.6041 35.0263 18.5659L28.0673 11.6451C28.0291 11.6069 27.9908 11.5687 27.9143 11.5304C27.8761 11.4922 27.7996 11.4922 27.7614 11.4922H14.3023C13.5376 11.4922 12.9258 12.104 12.9258 12.8687V36.9574C12.9258 37.7222 13.5376 38.334 14.3023 38.334H33.7645C34.5292 38.334 35.141 37.7222 35.141 36.9574V18.91C35.1792 18.8335 35.141 18.7953 35.141 18.7188ZM28.2202 13.0599L33.5733 18.4129H28.6791C28.4114 18.4129 28.2202 18.2217 28.2202 17.9541V13.0599ZM34.2233 36.9574C34.2233 37.2251 34.0321 37.4163 33.7645 37.4163H14.3023C14.0346 37.4163 13.8434 37.2251 13.8434 36.9574V12.8687C13.8434 12.6393 14.0729 12.4099 14.3023 12.4099H27.2643V17.9923C27.2643 18.7571 27.8761 19.3688 28.6408 19.3688H34.1851V36.9574H34.2233Z" fill="#1535AC"></path>
    <path d="M29.5963 24.6094H18.4696C18.2019 24.6094 18.0107 24.8006 18.0107 25.0682C18.0107 25.3359 18.2019 25.527 18.4696 25.527H29.5963C29.8639 25.527 30.0551 25.3359 30.0551 25.0682C30.0551 24.8006 29.8639 24.6094 29.5963 24.6094Z" fill="#1535AC"></path>
    <path d="M18.0107 21.7013C18.0107 21.969 18.2019 22.1601 18.4696 22.1601H29.5963C29.8639 22.1601 30.0551 21.969 30.0551 21.7013C30.0551 21.4336 29.8639 21.2425 29.5963 21.2425H18.4696C18.2402 21.2042 18.0107 21.4336 18.0107 21.7013Z" fill="#1535AC"></path>
    <path d="M29.5963 28.0098H18.4696C18.2019 28.0098 18.0107 28.2009 18.0107 28.4686C18.0107 28.7363 18.2019 28.9274 18.4696 28.9274H29.5963C29.8639 28.9274 30.0551 28.7363 30.0551 28.4686C30.0551 28.2009 29.8639 28.0098 29.5963 28.0098Z" fill="#1535AC"></path>
    <path d="M29.5963 31.4121H18.4696C18.2019 31.4121 18.0107 31.6033 18.0107 31.8709C18.0107 32.1386 18.2019 32.3298 18.4696 32.3298H29.5963C29.8639 32.3298 30.0551 32.1386 30.0551 31.8709C30.0551 31.6033 29.8639 31.4121 29.5963 31.4121Z" fill="#1535AC"></path>
  </g>
  <defs>
    <clipPath id="clip0_6126_4740">
      <rect width="26.88" height="26.88" fill="white" transform="translate(10.6318 11.4922)"></rect>
    </clipPath>
  </defs>
</svg>
